name Run_200 02_newCOP3_v24.mot
datacolumns 19
datarows 84
range 4.01 4.093
DataType=double
version=3
OpenSimVersion=4.3-2021-08-27-4bc7ad9
endheader
time	R_ground_force_vx	R_ground_force_vy	R_ground_force_vz	R_ground_force_px	R_ground_force_py	R_ground_force_pz	L_ground_force_vx	L_ground_force_vy	L_ground_force_vz	L_ground_force_px	L_ground_force_py	L_ground_force_pz	R_ground_torque_x	R_ground_torque_y	R_ground_torque_z	L_ground_torque_x	L_ground_torque_y	L_ground_torque_z
4.01	0	0	0	0	0	0	-51.790638	855.541077	16.652231	0.7969349999999999	0	-0.348623	0	0	0	0	-0.232459	0
4.011	0	0	0	0	0	0	-56.906811	865.569336	16.900892	0.796808	0	-0.348856	0	0	0	0	-0.220127	0
4.012	0	0	0	0	0	0	-61.986313	874.95752	16.943758	0.796647	0	-0.349097	0	0	0	0	-0.207486	0
4.013	0	0	0	0	0	0	-67.000343	883.777161	16.791796	0.796452	0	-0.349344	0	0	0	0	-0.194848	0
4.014	0	0	0	0	0	0	-71.921806	892.103333	16.461552	0.796219	0	-0.349597	0	0	0	0	-0.182554	0
4.015	0	0	0	0	0	0	-76.72534899999999	900.013184	15.974905	0.795947	0	-0.349855	0	0	0	0	-0.17097	0
4.016	0	0	0	0	0	0	-81.387421	907.584473	15.358624	0.795634	0	-0.350118	0	0	0	0	-0.160482	0
4.017	0	0	0	0	0	0	-85.886307	914.894775	14.643807	0.795277	0	-0.350385	0	0	0	0	-0.15149	0
4.018	0	0	0	0	0	0	-90.202164	922.0198360000001	13.865154	0.794875	0	-0.350654	0	0	0	0	-0.144403	0
4.019	0	0	0	0	0	0	-94.317108	929.032776	13.06012	0.794427	0	-0.350925	0	0	0	0	-0.139634	0
4.02	0	0	0	0	0	0	-98.215317	936.003052	12.267963	0.79393	0	-0.351197	0	0	0	0	-0.137593	0
4.021	0	0	0	0	0	0	-101.883141	942.9953	11.528712	0.793385	0	-0.351469	0	0	0	0	-0.138683	0
4.022	0	0	0	0	0	0	-105.309242	950.068726	10.882081	0.79279	0	-0.351741	0	0	0	0	-0.143292	0
4.023	0	0	0	0	0	0	-108.484711	957.2763670000001	10.36637	0.792144	0	-0.35201	0	0	0	0	-0.15179	0
4.024	0	0	0	0	0	0	-111.403221	964.664551	10.017392	0.791447	0	-0.352277	0	0	0	0	-0.164519	0
4.025	0	0	0	0	0	0	-114.061104	972.272339	9.867445	0.7907	0	-0.35254	0	0	0	0	-0.181795	0
4.026	0	0	0	0	0	0	-116.457397	980.131531	9.944386	0.789901	0	-0.352798	0	0	0	0	-0.203897	0
4.027	0	0	0	0	0	0	-118.593842	988.266174	10.270823	0.789053	0	-0.353051	0	0	0	0	-0.231066	0
4.028	0	0	0	0	0	0	-120.474808	996.692932	10.863457	0.788154	0	-0.353299	0	0	0	0	-0.2635	0
4.029	0	0	0	0	0	0	-122.10714	1005.420715	11.732604	0.787208	0	-0.353539	0	0	0	0	-0.301353	0
4.03	0	0	0	0	0	0	-123.499924	1014.451416	12.881897	0.786214	0	-0.353773	0	0	0	0	-0.34473	0
4.031	0	0	0	0	0	0	-124.664192	1023.78009	14.308188	0.785174	0	-0.353999	0	0	0	0	-0.393688	0
4.032	0	0	0	0	0	0	-125.612587	1033.395264	16.001644	0.784091	0	-0.354218	0	0	0	0	-0.448233	0
4.033	0	0	0	0	0	0	-126.358902	1043.279541	17.946033	0.7829660000000001	0	-0.354428	0	0	0	0	-0.508324	0
4.034	0	0	0	0	0	0	-126.917725	1053.410278	20.119186	0.781801	0	-0.354631	0	0	0	0	-0.573866	0
4.035	0	0	0	0	0	0	-127.303925	1063.760498	22.493608	0.780598	0	-0.354825	0	0	0	0	-0.644718	0
4.036	0	0	0	0	0	0	-127.532272	1074.299072	25.037235	0.779361	0	-0.355011	0	0	0	0	-0.720695	0
4.037	0	0	0	0	0	0	-127.617065	1084.991943	27.714283	0.778091	0	-0.355189	0	0	0	0	-0.8015640000000001	0
4.038	0	0	0	0	0	0	-127.571739	1095.80249	30.486185	0.776792	0	-0.355359	0	0	0	0	-0.887056	0
4.039	0	0	0	0	0	0	-127.408684	1106.692749	33.312572	0.775465	0	-0.355523	0	0	0	0	-0.976862	0
4.04	0	0	0	0	0	0	-127.139015	1117.623901	36.152279	0.774114	0	-0.355679	0	0	0	0	-1.070642	0
4.041	0	0	0	0	0	0	-126.772491	1128.557129	38.964336	0.772742	0	-0.355828	0	0	0	0	-1.168029	0
4.042	0	0	0	0	0	0	-126.317513	1139.453979	41.708954	0.77135	0	-0.355972	0	0	0	0	-1.268632	0
4.043	0	0	0	0	0	0	-125.781174	1150.277344	44.348419	0.769941	0	-0.35611	0	0	0	0	-1.372041	0
4.044	0	0	0	0	0	0	-125.169373	1160.991821	46.847958	0.768518	0	-0.356243	0	0	0	0	-1.477834	0
4.045	0	0	0	0	0	0	-124.487015	1171.564209	49.176483	0.767084	0	-0.356371	0	0	0	0	-1.585583	0
4.046	0	0	0	0	0	0	-123.738159	1181.963379	51.307247	0.76564	0	-0.356495	0	0	0	0	-1.694855	0
4.047	0	0	0	0	0	0	-122.926239	1192.161621	53.218391	0.764188	0	-0.356616	0	0	0	0	-1.805221	0
4.048	0	0	0	0	0	0	-122.054283	1202.133545	54.893337	0.76273	0	-0.356733	0	0	0	0	-1.916258	0
4.049	0	0	0	0	0	0	-121.125076	1211.857422	56.321098	0.761269	0	-0.356848	0	0	0	0	-2.027557	0
4.05	0	0	0	0	0	0	-120.141312	1221.314209	57.49641	0.759806	0	-0.356961	0	0	0	0	-2.138721	0
4.051	0	0	0	0	0	0	-119.105736	1230.488281	58.419746	0.758341	0	-0.357072	0	0	0	0	-2.249376	0
4.052	0	0	0	0	0	0	-118.021225	1239.367065	59.097198	0.7568780000000001	0	-0.357181	0	0	0	0	-2.359169	0
4.053	0	0	0	0	0	0	-116.890854	1247.940918	59.540234	0.755416	0	-0.35729	0	0	0	0	-2.467772	0
4.054	0	0	0	0	0	0	-115.717911	1256.203247	59.765297	0.753957	0	-0.357397	0	0	0	0	-2.574884	0
4.055	0	0	0	0	0	0	-114.505936	1264.150269	59.793335	0.752502	0	-0.357504	0	0	0	0	-2.680233	0
4.056	0	0	0	0	0	0	-113.258636	1271.780762	59.649216	0.7510520000000001	0	-0.35761	0	0	0	0	-2.783578	0
4.057	0	0	0	0	0	0	-111.979912	1279.096191	59.361019	0.749606	0	-0.357715	0	0	0	0	-2.884705	0
4.058	0	0	0	0	0	0	-110.673752	1286.099854	58.959328	0.748167	0	-0.35782	0	0	0	0	-2.983433	0
4.059	0	0	0	0	0	0	-109.344215	1292.797363	58.476395	0.746733	0	-0.357925	0	0	0	0	-3.079608	0
4.06	0	0	0	0	0	0	-107.9953	1299.196045	57.945339	0.745305	0	-0.358029	0	0	0	0	-3.173105	0
4.061	0	0	0	0	0	0	-106.630913	1305.304321	57.399303	0.743884	0	-0.358133	0	0	0	0	-3.263824	0
4.062	0	0	0	0	0	0	-105.254761	1311.13208	56.870621	0.74247	0	-0.358236	0	0	0	0	-3.351691	0
4.063	0	0	0	0	0	0	-103.87027	1316.689819	56.390026	0.741062	0	-0.358339	0	0	0	0	-3.436653	0
4.064	0	0	0	0	0	0	-102.480507	1321.988403	55.985912	0.739661	0	-0.358442	0	0	0	0	-3.518676	0
4.065	0	0	0	0	0	0	-101.088112	1327.03894	55.683662	0.738267	0	-0.358543	0	0	0	0	-3.597743	0
4.066	0	0	0	0	0	0	-99.695221	1331.852295	55.505047	0.736879	0	-0.358644	0	0	0	0	-3.673851	0
4.067	0	0	0	0	0	0	-98.303444	1336.438965	55.467739	0.735498	0	-0.358744	0	0	0	0	-3.747009	0
4.068	0	0	0	0	0	0	-96.913788	1340.80835	55.584946	0.7341220000000001	0	-0.358842	0	0	0	0	-3.81723	0
4.069	0	0	0	0	0	0	-95.526718	1344.969238	55.865131	0.732753	0	-0.35894	0	0	0	0	-3.884535	0
4.07	0	0	0	0	0	0	-94.14211299999999	1348.928955	56.311886	0.731389	0	-0.359036	0	0	0	0	-3.948947	0
4.071	0	0	0	0	0	0	-92.75932299999999	1352.69397	56.923908	0.73003	0	-0.359131	0	0	0	0	-4.010489	0
4.072	0	0	0	0	0	0	-91.37721999999999	1356.268799	57.695133	0.728677	0	-0.359225	0	0	0	0	-4.069182	0
4.073	0	0	0	0	0	0	-89.994308	1359.656982	58.614956	0.727328	0	-0.359317	0	0	0	0	-4.125042	0
4.074	0	0	0	0	0	0	-88.608757	1362.860352	59.668583	0.725983	0	-0.359408	0	0	0	0	-4.17808	0
4.075	0	0	0	0	0	0	-87.218552	1365.87915	60.837494	0.724643	0	-0.359497	0	0	0	0	-4.228299	0
4.076	0	0	0	0	0	0	-85.821579	1368.712646	62.099979	0.723306	0	-0.359585	0	0	0	0	-4.275696	0
4.077	0	0	0	0	0	0	-84.415718	1371.358398	63.431767	0.721973	0	-0.359671	0	0	0	0	-4.32026	0
4.078	0	0	0	0	0	0	-82.99897	1373.812744	64.80669399999999	0.720644	0	-0.359756	0	0	0	0	-4.361969	0
4.079	0	0	0	0	0	0	-81.569534	1376.071289	66.197441	0.719317	0	-0.359839	0	0	0	0	-4.400798	0
4.08	0	0	0	0	0	0	-80.125877	1378.128296	67.576256	0.717993	0	-0.359921	0	0	0	0	-4.436711	0
4.081	0	0	0	0	0	0	-78.66680100000001	1379.977417	68.91567999999999	0.7166709999999999	0	-0.360001	0	0	0	0	-4.469667	0
4.082	0	0	0	0	0	0	-77.191498	1381.611816	70.18929300000001	0.715352	0	-0.360081	0	0	0	0	-4.499622	0
4.083	0	0	0	0	0	0	-75.69957700000001	1383.024048	71.372353	0.7140339999999999	0	-0.360159	0	0	0	0	-4.526525	0
4.084	0	0	0	0	0	0	-74.19105500000001	1384.206665	72.442398	0.712719	0	-0.360235	0	0	0	0	-4.550326	0
4.085	0	0	0	0	0	0	-72.66636699999999	1385.151978	73.379822	0.711405	0	-0.360311	0	0	0	0	-4.570975	0
4.086	0	0	0	0	0	0	-71.12634300000001	1385.852905	74.16825900000001	0.7100919999999999	0	-0.360386	0	0	0	0	-4.588424	0
4.087	0	0	0	0	0	0	-69.572182	1386.302368	74.794968	0.708781	0	-0.36046	0	0	0	0	-4.602627	0
4.088	0	0	0	0	0	0	-68.005379	1386.494141	75.251015	0.707471	0	-0.360532	0	0	0	0	-4.613547	0
4.089	0	0	0	0	0	0	-66.427734	1386.422607	75.531441	0.706163	0	-0.360604	0	0	0	0	-4.621152	0
4.09	0	0	0	0	0	0	-64.84120900000001	1386.083008	75.635201	0.704855	0	-0.360675	0	0	0	0	-4.625422	0
4.091	0	0	0	0	0	0	-63.247967	1385.471558	75.565102	0.703548	0	-0.360746	0	0	0	0	-4.626346	0
4.092	0	0	0	0	0	0	-61.650227	1384.585815	75.32757599999999	0.702243	0	-0.360815	0	0	0	0	-4.623927	0
4.093	0	0	0	0	0	0	-60.050251	1383.424072	74.93235	0.7009379999999999	0	-0.360884	0	0	0	0	-4.618181	0
